<svg xmlns="http://www.w3.org/2000/svg" xmlns:xlink="http://www.w3.org/1999/xlink" version="1.1" viewBox="0 0 256 256" style="fill: #c7b374;" xml:space="preserve">
<desc>Created with Fabric.js 1.7.22</desc>
<defs>
</defs>
<g transform="translate(128 128) scale(0.72 0.72)" style="">
	<g style="stroke: none; stroke-width: 0; stroke-dasharray: none; stroke-linecap: butt; stroke-linejoin: miter; stroke-miterlimit: 10; opacity: 1;" transform="translate(-175.05 -175.05000000000004) scale(3.89 3.89)" >
	<path d="M 70.648 87.969 c -0.558 0 -1.116 -0.133 -1.629 -0.402 L 45 74.938 L 20.98 87.566 c -1.179 0.622 -2.608 0.517 -3.686 -0.266 c -1.078 -0.783 -1.618 -2.11 -1.393 -3.424 l 4.587 -26.746 L 1.057 38.188 c -0.954 -0.93 -1.297 -2.32 -0.886 -3.588 c 0.412 -1.267 1.507 -2.19 2.825 -2.382 l 26.855 -3.902 l 12.01 -24.334 c 0.59 -1.195 1.807 -1.951 3.139 -1.951 s 2.549 0.756 3.139 1.951 l 12.01 24.334 l 26.854 3.902 c 1.318 0.191 2.414 1.115 2.826 2.382 c 0.411 1.268 0.068 2.658 -0.886 3.588 L 69.511 57.131 l 4.587 26.746 c 0.226 1.313 -0.314 2.641 -1.392 3.424 C 72.096 87.743 71.374 87.969 70.648 87.969 z M 45 67.484 c 0.56 0 1.119 0.134 1.629 0.402 L 66 78.07 l -3.699 -21.569 c -0.195 -1.136 0.182 -2.294 1.006 -3.098 l 15.672 -15.277 l -21.657 -3.146 c -1.141 -0.166 -2.126 -0.882 -2.636 -1.915 L 45 13.439 l -9.686 19.625 c -0.51 1.033 -1.496 1.749 -2.635 1.915 l -21.658 3.146 l 15.671 15.277 c 0.825 0.804 1.202 1.962 1.007 3.098 L 24 78.07 l 19.371 -10.184 C 43.881 67.618 44.44 67.484 45 67.484 z" style="stroke: none; stroke-width: 1; stroke-dasharray: none; stroke-linecap: butt; stroke-linejoin: miter; stroke-miterlimit: 10; opacity: 1;" transform=" matrix(1 0 0 1 0 0) " stroke-linecap="round" />
</g>
</g>
</svg>